<?xml version="1.0" encoding="utf-8"?>
<!-- Generator: Adobe Illustrator 24.1.2, SVG Export Plug-In . SVG Version: 6.00 Build 0)  -->
<svg version="1.1" id="Layer_1" xmlns="http://www.w3.org/2000/svg" xmlns:xlink="http://www.w3.org/1999/xlink" x="0px" y="0px"
	 viewBox="0 0 980.6 263.5" style="enable-background:new 0 0 980.6 263.5;" xml:space="preserve">
<style type="text/css">
	.st0{display:none;}
	.st1{fill:#FFFFFF;}
	.st2{fill:url(#SVGID_1_);stroke:#FFFFFF;}
	.st3{fill:url(#SVGID_2_);stroke:#FFFFFF;}
	.st4{fill:url(#SVGID_3_);stroke:#FFFFFF;}
	.st5{fill:none;stroke:#FFFFFF;stroke-width:1;stroke-miterlimit:9.9999;}
	.st6{font-family:'Calibri';}
	.st7{font-size:14.9861px;}
	.st8{display:inline;fill:#231F20;stroke:#231F20;stroke-width:2;stroke-miterlimit:10;}
</style>
<g id="Layer_2_1_" class="st0">
</g>
<g id="Layer_3">
	<path class="st1" d="M538.2,110.7v12.1h4.7v52.9l15.4,0.2v-53.7h21.3v53.2h15.8v-53.2h12.4c0,0,9.9,1.3,9.9,11.4v41.8h15.6V128
		c0,0-0.7-17.1-18.5-17.1L538.2,110.7z"/>
	<path class="st1" d="M426.3,175.5h15.1l0.2-52.2l9.9-0.2c0,0,6.7,0.5,6.9,7.9v9.2h14.6l-0.2-13.1c0,0,0.2-16.3-17.3-16.3l-33.6-0.2
		v12.6h4.7L426.3,175.5z"/>
	<path class="st1" d="M268.7,175h22.5l46-81.7L337,175h15.8V86.6h-21.3c0,0-9.6-1.2-20.1,16.6L268.7,175z"/>
	<path class="st1" d="M637.4,163.8v11.6l47.8-0.2c0,0,13.1-1.5,12.4-22.3c0,0,0.7-14.9-16.3-15.8h-24.5c0,0-5.7,0.7-5.7-7.9
		c0,0-0.2-6.7,6-6.7h37.9v-11.9H653c0,0-16.8,2.2-16.3,19.6c0,0,0.5,18.1,15.8,19.3l26.7,0.5c0,0,5.2,0.5,4.9,6.9c0,0-1,7.2-6,7.2
		L637.4,163.8z"/>
	<path class="st1" d="M476.3,122.5v-11.9h41.1c0,0,17.3,0.7,18.3,18.5l-0.2,46.5l-46.5,0.2c0,0-17.8-1.5-15.8-24.5
		c0,0,1.7-15.4,18.8-15.6l29,0.2c0,0,2.7-13.6-10.2-13.6H476.3L476.3,122.5z M495.1,148.2c-6.7,0-6.7,6.9-6.7,6.9
		c0,7.4,7.2,9.2,7.2,9.2l25.2-0.2V148L495.1,148.2z"/>
	<path class="st1" d="M373.9,86.6l0.2,24.5l22.5-0.5c26,0.2,25,29.7,25,29.7c1,33.9-25.2,35.2-25.2,35.2H359V86.4L373.9,86.6z
		 M374.1,122.8l-0.2,41.3h17.8c0,0,14.6,0.2,14.6-22.3c0,0-0.5-19.3-12.9-19.3L374.1,122.8z"/>
	
		<linearGradient id="SVGID_1_" gradientUnits="userSpaceOnUse" x1="259.7224" y1="652.1873" x2="342.0091" y2="652.1873" gradientTransform="matrix(1 0 0 1 0 -526)">
		<stop  offset="0" style="stop-color:#ED1C24"/>
		<stop  offset="0.3201" style="stop-color:#D92128"/>
		<stop  offset="0.7152" style="stop-color:#C7252C"/>
		<stop  offset="1" style="stop-color:#C1272D"/>
	</linearGradient>
	<path class="st2" d="M342,138.3c-1.6-5.9-4.4-11.6-9.2-15.5c-12.6-10.5-29.2-7.8-44.1-6.1c-4.3,0.5-8.7,1-13.1,1
		c-5.5,0-11.2-0.6-15.9-3.6c0.6,0.4,1.2,3.1,1.5,3.9c0.6,1.4,1.4,2.6,2.2,3.8c1.8,2.4,4.1,4.2,6.8,5.4c5.5,2.5,11.8,2.8,17.8,2.5
		c12.8-0.7,26.3-4.8,39.1-1.8C333.2,129.2,338.7,133,342,138.3z"/>
	
		<linearGradient id="SVGID_2_" gradientUnits="userSpaceOnUse" x1="315.0323" y1="678.7354" x2="345.1088" y2="678.7354" gradientTransform="matrix(1 0 0 1 0 -526)">
		<stop  offset="0" style="stop-color:#4798ED"/>
		<stop  offset="0.1654" style="stop-color:#4087EA"/>
		<stop  offset="0.5016" style="stop-color:#3469E4"/>
		<stop  offset="0.7915" style="stop-color:#2D57E1"/>
		<stop  offset="1" style="stop-color:#2A51E0"/>
	</linearGradient>
	<path class="st3" d="M345.1,159.7c0,0-3-17.4-30.1-13.4c0,0,0.7,7.4,4.5,8.5C319.5,154.9,338.2,150.8,345.1,159.7z"/>
	
		<linearGradient id="SVGID_3_" gradientUnits="userSpaceOnUse" x1="272.1696" y1="667.3466" x2="344.3339" y2="667.3466" gradientTransform="matrix(1 0 0 1 0 -526)">
		<stop  offset="0" style="stop-color:#F2F2F2"/>
		<stop  offset="0.2797" style="stop-color:#CFCFCF"/>
		<stop  offset="0.5698" style="stop-color:#B1B1B1"/>
		<stop  offset="0.8201" style="stop-color:#9F9F9F"/>
		<stop  offset="1" style="stop-color:#999999"/>
	</linearGradient>
	<path class="st4" d="M344.3,151.9c-1.4-5.1-3.9-10.1-8-13.6c-11-9.2-25.6-6.8-38.7-5.3c-3.8,0.4-7.7,0.8-11.5,0.9
		c-4.8,0-9.8-0.6-13.9-3.2c0.5,0.3,1,2.7,1.3,3.3c0.5,1.2,1.2,2.3,2,3.3c1.5,2.1,3.6,3.7,6,4.7c4.8,2.1,10.4,2.4,15.6,2.1
		c11.3-0.6,23.1-4.2,34.3-1.6C336.6,143.9,341.5,147.3,344.3,151.9z"/>
	<g>
		<ellipse class="st5" cx="708.3" cy="119.2" rx="8.8" ry="8.8"/>
		<text transform="matrix(1 0 0 1 704.2754 123.9771)" class="st1 st6 st7">R</text>
	</g>
	<g class="st0">
		<path class="st8" d="M89.8,259.3l-13.4,34.8h-5.5L61.3,270l-9.7,24.1H46l-13.4-34.8H41l8.9,23.4l9.3-23.4h5.7l9.4,23.4l8.4-23.4
			L89.8,259.3L89.8,259.3z"/>
		<path class="st8" d="M152.4,259.3L139,294.1h-5.5l-9.6-24.1l-9.7,24.1h-5.6l-13.4-34.8h8.4l8.8,23.4l9.3-23.4h5.7l9.4,23.4
			l8.4-23.4H152.4L152.4,259.3z"/>
		<path class="st8" d="M214.9,259.3l-13.4,34.8H196l-9.6-24.1l-9.7,24.1h-5.6l-13.4-34.8h8.4l8.9,23.4l9.3-23.4h5.7l9.4,23.4
			l8.4-23.4H214.9L214.9,259.3z"/>
		<path class="st8" d="M228.9,291.6c0,1.1-0.1,1.8-0.4,2.1s-1,0.4-2.1,0.4H220c-1.1,0-1.6-0.8-1.6-2.5v-5.5c0-1.1,0.1-1.8,0.4-2.1
			s1-0.4,2.1-0.4h6.4c1.1,0,1.6,0.8,1.6,2.5V291.6z"/>
		<path class="st8" d="M284.6,294.1h-9.1l-4.2-7.6h-22.1l-4.1,7.6H237l19.7-34.8h7.8L284.6,294.1z M268,280.2l-7.5-14.2l-7.8,14.2
			H268z"/>
		<path class="st8" d="M333.8,287.3c0,4.5-3.4,6.8-10.3,6.8h-27.7v-34.8h29.9c5.2,0,7.8,2.3,7.8,6.8v4.3c0,3.4-2,5.4-6,5.9
			c4.2,0.5,6.3,2.8,6.3,6.7L333.8,287.3L333.8,287.3z M326,270.8v-3.3c0-1.7-1.2-2.5-3.7-2.5h-18.5v8.3h18.5
			C324.8,273.3,326,272.4,326,270.8z M326.2,284.7v-2.6c0-1.3-0.3-2.1-0.9-2.5s-1.6-0.6-3-0.6h-18.5v8.9h18.5c1.4,0,2.4-0.2,3-0.6
			C325.9,286.9,326.2,286,326.2,284.7z"/>
		<path class="st8" d="M390.8,294.1h-11.6l-14-13.2h-7.7v13.2h-8v-34.8h29.9c5.2,0,7.8,2.3,7.8,6.8v8.2c0,3.4-1.4,5.5-4,6.3
			c-1,0.3-3.8,0.5-8.4,0.5L390.8,294.1z M379.3,272.2V268c0-1.2-0.3-1.9-1-2.3c-0.5-0.3-1.4-0.5-2.6-0.5h-18.2v9.7h18.2
			c1.3,0,2.1-0.2,2.6-0.5C379,274.2,379.3,273.4,379.3,272.2z"/>
		<path class="st8" d="M442,294.1h-9.1l-4.2-7.6h-22.1l-4,7.6h-8.1l19.7-34.8h7.8L442,294.1z M425.3,280.2l-7.5-14.2l-7.8,14.2
			H425.3z"/>
		<path class="st8" d="M498.6,294.1h-7.5v-21.7c0-0.8,0.1-2,0.3-3.6c-0.4,0.9-1.1,2.1-2,3.6l-13.1,17.4h-1.6l-13.1-17.5
			c-1-1.3-1.6-2.5-2.1-3.6c0.1,1.4,0.2,2.5,0.2,3.4v21.8h-6.5v-34.8h6.5l16.4,21.1l16.1-21.1h6.5L498.6,294.1L498.6,294.1z"/>
		<path class="st8" d="M553.5,285.9c0,3.2-0.6,5.4-1.9,6.5c-1.3,1.1-3.5,1.7-6.8,1.7h-21.5c-3.6,0-5.9-0.6-7-1.9s-1.7-3.7-1.7-7.3
			l7.2-1.5v4.1h24.7v-8h-21.7c-3.3,0-5.5-0.6-6.8-1.7s-1.9-3.3-1.9-6.5v-3.9c0-3.2,0.6-5.4,1.9-6.5c1.2-1.1,3.5-1.7,6.8-1.7h19.8
			c3.3,0,5.6,0.6,6.8,1.7s1.8,3.4,1.8,6.6l-7.2,1.7v-4h-22.8v7.5h21.7c3.3,0,5.6,0.6,6.8,1.7s1.9,3.3,1.9,6.5L553.5,285.9
			L553.5,285.9z"/>
		<path class="st8" d="M615.8,294.1h-7.5v-21.7c0-0.8,0.1-2,0.3-3.6c-0.4,0.9-1.1,2.1-2,3.6l-13.1,17.4h-1.6l-13.1-17.5
			c-1-1.3-1.6-2.5-2.1-3.6c0.1,1.4,0.2,2.5,0.2,3.4v21.8h-6.5v-34.8h6.5l16.4,21.1l16.1-21.1h6.5L615.8,294.1L615.8,294.1z"/>
		<path class="st8" d="M668.1,265.4H641v9.2h14.7v6.4H641v13.2h-8.1v-34.8h35.3v6H668.1z"/>
		<path class="st8" d="M718.8,285.9c0,3.2-0.6,5.4-1.9,6.5c-1.2,1.1-3.5,1.7-6.8,1.7h-24c-3.3,0-5.5-0.6-6.8-1.7
			c-1.2-1.1-1.9-3.3-1.9-6.5v-18.4c0-3.2,0.6-5.4,1.9-6.5s3.5-1.7,6.8-1.7h24c3.5,0,5.8,0.6,6.9,1.8c1.2,1.2,1.7,3.5,1.7,6.9
			l-7.9,1.4v-3.9h-25.3v22.1h25.3v-7.8h-13.2v-5.9h21.1L718.8,285.9L718.8,285.9z"/>
		<path class="st8" d="M743.4,291.6c0,1.1-0.1,1.8-0.4,2.1c-0.3,0.3-1,0.4-2.1,0.4h-6.3c-1.1,0-1.6-0.8-1.6-2.5v-5.5
			c0-1.1,0.1-1.8,0.4-2.1c0.3-0.3,1-0.4,2.1-0.4h6.3c1.1,0,1.6,0.8,1.6,2.5V291.6z"/>
		<path class="st8" d="M795.6,285.9c0,3.2-0.6,5.4-1.9,6.5c-1.2,1.1-3.5,1.7-6.8,1.7h-20.8c-3.3,0-5.5-0.6-6.8-1.7
			c-1.2-1.1-1.9-3.3-1.9-6.5v-18.4c0-3.2,0.6-5.4,1.9-6.5c1.2-1.1,3.5-1.7,6.8-1.7H787c4.1,0,6.7,1,7.7,2.9c0.6,1.1,1,4,1,8.6
			l-8.1,1.3v-6.6h-21.9v22.1h21.9V280l8.1,1.7L795.6,285.9L795.6,285.9z"/>
		<path class="st8" d="M854.6,285.9c0,3.2-0.6,5.4-1.9,6.5c-1.2,1.1-3.5,1.7-6.8,1.7h-25.7c-3.3,0-5.5-0.6-6.8-1.7
			c-1.2-1.1-1.9-3.3-1.9-6.5v-18.4c0-3.2,0.6-5.4,1.9-6.5s3.5-1.7,6.8-1.7h25.7c3.3,0,5.5,0.6,6.8,1.7s1.9,3.3,1.9,6.5V285.9z
			 M846.5,287.6v-22.1h-26.7v22.1H846.5z"/>
		<path class="st8" d="M917.1,294.1h-7.5v-21.7c0-0.8,0.1-2,0.3-3.6c-0.4,0.9-1.1,2.1-2,3.6l-13.1,17.4h-1.6L880,272.4
			c-1-1.3-1.6-2.5-2.1-3.6c0.1,1.4,0.2,2.5,0.2,3.4V294h-6.5v-34.8h6.5l16.4,21.1l16.1-21.1h6.5L917.1,294.1L917.1,294.1z"/>
	</g>
</g>
</svg>
