<?xml version="1.0" encoding="UTF-8"?>
<svg id="Layer_1" xmlns="http://www.w3.org/2000/svg" version="1.1" viewBox="0 0 436 79">
  <!-- Generator: Adobe Illustrator 29.6.1, SVG Export Plug-In . SVG Version: 2.1.1 Build 9)  -->
  <defs>
    <style>
      .st0 {
        fill: none;
      }
    </style>
  </defs>
  <path class="st0" d="M33.18,70H8.1l7.74-44c.59-3.31,1.41-6.14,2.46-8.47,1.06-2.33,2.54-4.24,4.44-5.72,1.91-1.48,4.34-2.57,7.3-3.26,2.96-.69,6.64-1.03,11.04-1.03h8.8c4.4,0,7.96.35,10.69,1.03,2.73.69,4.78,1.77,6.16,3.26,1.38,1.48,2.18,3.39,2.42,5.72.23,2.33.06,5.16-.53,8.47l-7.74,44h-25.08l4.44-25.3h-2.64l-4.44,25.3ZM39.56,33.7h2.64l2.16-12.1h-2.64l-2.16,12.1ZM94.34,70h-30.8l10.87-61.6h30.8c4.4,0,7.96.3,10.69.9,2.73.6,4.8,1.58,6.2,2.95,1.41,1.36,2.24,3.17,2.49,5.41.25,2.24.08,5.02-.51,8.34-.38,2.2-.95,4.09-1.72,5.68-.76,1.58-1.69,2.88-2.77,3.89-1.09,1.01-2.33,1.76-3.72,2.24-1.39.48-2.91.73-4.55.73l-.22,1.32c1.64,0,3.08.24,4.31.73,1.23.48,2.21,1.23,2.93,2.24.72,1.01,1.18,2.31,1.39,3.89.21,1.58.12,3.48-.26,5.68-.59,3.29-1.4,6.06-2.44,8.32-1.04,2.26-2.51,4.07-4.4,5.43-1.89,1.36-4.31,2.35-7.26,2.95-2.95.6-6.62.9-11.02.9ZM93.59,56.8l2.11-12.1h-2.64l-2.11,12.1h2.64ZM95,33.7h2.64l2.16-12.1h-2.64l-2.16,12.1ZM174.9,52.4c-.59,3.29-1.41,6.1-2.46,8.45-1.06,2.35-2.54,4.26-4.47,5.74-1.92,1.48-4.36,2.57-7.33,3.26-2.96.69-6.64,1.03-11.04,1.03h-8.8c-4.4,0-7.96-.35-10.67-1.03-2.71-.69-4.77-1.77-6.16-3.26-1.39-1.48-2.2-3.39-2.42-5.74-.22-2.35-.04-5.16.55-8.45l4.62-26.4c.59-3.31,1.41-6.14,2.46-8.47,1.06-2.33,2.54-4.24,4.44-5.72,1.91-1.48,4.34-2.57,7.3-3.26,2.96-.69,6.64-1.03,11.04-1.03h8.8c4.4,0,7.96.35,10.69,1.03,2.73.69,4.78,1.77,6.16,3.26,1.38,1.48,2.19,3.39,2.42,5.72.23,2.33.06,5.16-.53,8.47l-4.62,26.4ZM154.44,26h-2.64l-4.62,26.4h2.64l4.62-26.4ZM185.29,8.4h25.08l-7.74,44h2.64l7.74-44h25.08l-7.74,44c-.59,3.29-1.41,6.1-2.46,8.45-1.06,2.35-2.54,4.26-4.47,5.74-1.92,1.48-4.36,2.57-7.33,3.26-2.96.69-6.64,1.03-11.04,1.03h-8.8c-4.4,0-7.96-.35-10.67-1.03-2.71-.69-4.77-1.77-6.16-3.26-1.39-1.48-2.2-3.39-2.42-5.74-.22-2.35-.04-5.16.55-8.45l7.74-44ZM290,28.2h-13.86l-7.35,41.8h-25.08l7.35-41.8h-13.86l3.52-19.8h52.8l-3.52,19.8ZM335.76,8.4h25.08c4.4,0,7.96.3,10.69.9,2.73.6,4.8,1.58,6.2,2.95s2.24,3.17,2.49,5.41c.25,2.24.08,5.02-.51,8.34l-7.74,44h-22l7.74-44h-2.64l-7.74,44h-19.8l7.74-44h-2.64l-7.74,44h-22l7.74-44c.38-2.2.86-4.17,1.45-5.9.59-1.73,1.32-3.24,2.2-4.53.88-1.29,1.94-2.4,3.19-3.32,1.25-.92,2.73-1.66,4.47-2.22,1.73-.56,3.73-.97,6.01-1.23,2.27-.26,4.88-.4,7.81-.4ZM422.09,50.2l-3.48,19.8h-44l10.87-61.6h44l-3.52,19.8h-18.92l-.44,2.64h17.16l-2.95,16.72h-17.16l-.48,2.64h18.92Z"/>
</svg>