<?xml version="1.0" encoding="utf-8"?>
<!-- Generator: Adobe Illustrator 24.1.2, SVG Export Plug-In . SVG Version: 6.00 Build 0)  -->
<svg version="1.1" id="Layer_1" xmlns="http://www.w3.org/2000/svg" xmlns:xlink="http://www.w3.org/1999/xlink" x="0px" y="0px"
	 viewBox="0 0 829 190.4" style="enable-background:new 0 0 829 190.4;" xml:space="preserve">
<style type="text/css">
	.st0{enable-background:new    ;}
	.st1{fill:#26A9E0;}
	.st2{fill:#231F20;}
</style>
<g class="st0">
	<path class="st1" d="M459.1,144.2h29.8v-11.4h7.8l0.1,35.2h-7.8l-0.1-17.2h-29.8l0.1,17.2h-7.9l-0.1-35.2h7.9V144.2z"/>
	<path class="st1" d="M547.7,138.2c3.5,0,6.5,1,9,3.1c2.5,2.1,3.7,4.6,3.7,7.6v8.3c0,3-1.2,5.5-3.7,7.6c-2.4,2.1-5.4,3.1-9,3.1H535
		c-3.5,0-6.5-1-9.1-3.1s-3.8-4.6-3.8-7.6v-8.3c0-2.9,1.2-5.5,3.7-7.6c2.5-2.1,5.5-3.2,9-3.2H547.7z M552.8,157.2v-8.3
		c0-1.1-0.5-2.1-1.5-2.9c-1-0.8-2.2-1.2-3.6-1.2h-12.7c-1.3,0-2.5,0.4-3.4,1.2c-0.9,0.8-1.4,1.7-1.4,2.9v8.3c0,1.2,0.5,2.2,1.4,2.9
		c0.9,0.8,2.1,1.1,3.4,1.1h12.7c1.4,0,2.6-0.4,3.6-1.1C552.3,159.4,552.8,158.4,552.8,157.2z"/>
	<path class="st1" d="M628.8,148.9l0.1,19h-7.8l-0.1-19c0-1.1-0.5-2.1-1.5-2.9c-1-0.8-2.2-1.2-3.6-1.2h-4.8l0.1,23h-7.8l-0.1-23h-10
		l0.1,23h-7.6l-0.1-29.7h30.2c3.6,0,6.6,1,9.1,3.1C627.6,143.4,628.8,145.9,628.8,148.9z"/>
	<path class="st1" d="M679.8,138.2c3.5,0,6.5,0.9,9,2.7c2.5,1.8,3.7,3.9,3.7,6.3v9.3H662v0.7c0,1.2,0.5,2.2,1.5,2.9
		c1,0.8,2.2,1.1,3.6,1.1h12.7c1.9,0,3.6-0.2,4.9-0.6v-3.2h7.8v3.6c0,2-1.2,3.7-3.5,5c-2.3,1.3-5.4,1.9-9.1,1.9h-12.7
		c-3.5,0-6.5-1-9.1-3.1c-2.5-2.1-3.8-4.6-3.8-7.6v-8.3c0-2.9,1.2-5.5,3.7-7.6c2.5-2.1,5.5-3.2,9-3.2H679.8z M662,149.9h22.7v-2.7
		c0-0.6-0.5-1.1-1.4-1.6c-1-0.5-2.1-0.7-3.5-0.7h-12.7c-1.3,0-2.5,0.4-3.6,1.2c-1,0.8-1.5,1.7-1.5,2.9V149.9z"/>
	<path class="st1" d="M751.5,144.3v2.8h-7.8v-1.7c-1.1-0.4-2.7-0.5-4.9-0.5h-8.7c-1.4,0-2.6,0.3-3.5,0.8c-0.9,0.5-1.3,1.1-1.3,1.8
		c0,0.6,0.5,1.2,1.4,1.7c0.9,0.5,2.1,0.8,3.4,0.8h8.7c3.5,0,6.5,0.9,9,2.7c2.5,1.8,3.8,3.9,3.8,6.4c0,2.5-1.2,4.6-3.7,6.3
		c-2.5,1.7-5.4,2.6-8.9,2.6h-8.7c-2.1,0-4-0.2-5.6-0.5c-1.6-0.3-2.9-0.7-3.8-1.2c-0.9-0.5-1.6-1-2.2-1.5c-0.5-0.6-0.9-1.1-1.1-1.5
		c-0.2-0.4-0.2-0.8-0.2-1.2v-2.9h7.9v1.5c0.8,0.4,2.4,0.5,4.8,0.5h8.7c1.3,0,2.5-0.2,3.5-0.7s1.4-1,1.4-1.5c0-0.7-0.5-1.2-1.4-1.8
		s-2.1-0.8-3.5-0.8h-8.7c-3.5,0-6.5-0.9-9-2.7c-2.5-1.8-3.7-3.9-3.7-6.3c0-2.6,1.2-4.8,3.7-6.6c2.5-1.8,5.5-2.7,9-2.7h8.7
		c2.5,0,4.7,0.2,6.5,0.7c1.8,0.5,3.1,1,3.9,1.7c0.8,0.7,1.4,1.3,1.8,2C751.3,143.2,751.5,143.8,751.5,144.3z"/>
</g>
<g class="st0">
	<path class="st2" d="M136.8,96.7c-1.1,0.1-4.2,0.1-9.1,0.1H121H98.9c-3.8,0-6.1-0.2-7-0.5c-0.9-0.4-1.4-0.8-1.5-1.3
		c-0.1-0.1-0.2-0.4-0.2-0.8v-0.5V55.6c0-4.4,0.1-7.3,0.3-8.5c0.5-3.9,1.8-6.9,4-9c2.7-2.5,9.7-3.8,21.1-3.8
		c12.6,0,21.6,0.7,26.9,2.1c4.2,1.1,7.1,2.9,8.9,5.2c1.8,2.3,2.7,6.2,2.7,11.4c0,5.7-1.6,9.6-4.9,11.7c2.6,1.3,4.4,3,5.4,5.3
		c0.9,2.3,1.4,5.4,1.4,9.4c0,6.4-1.5,10.7-4.6,13.1C148.6,95,143.6,96.3,136.8,96.7z M139.3,43.5c-3.8-1.2-10.9-1.8-21.2-1.8
		c-2.9,0-5,0-6.4,0.1c-1.4,0.1-3.1,0.3-5,0.9c-1.9,0.5-3.5,1.2-4.7,2.2c-0.8,0.7-1.3,2.3-1.5,4.9c-0.2,1.6-0.2,3.8-0.2,6.5v5.7h20.2
		c5.9,0,10.1-0.1,12.6-0.3c3.7-0.3,6.4-1,8.3-2c1.4-0.7,2.4-1.5,2.9-2.5c0.5-0.9,0.8-2.3,0.8-4.2c0-3-0.5-5.1-1.4-6.4
		C142.6,45.2,141.2,44.2,139.3,43.5z M140.6,69.9c-1.7-0.3-3.6-0.4-5.8-0.4c-1.5-0.1-3.9-0.1-7-0.1h-27.6v19.7
		c0,0.2,0.3,0.3,0.8,0.3H121c6.7,0,11.4-0.1,14-0.4c4.1-0.2,7-0.9,8.7-2.1c1.7-1.2,2.6-3.6,2.6-7.3c0-3.3-0.4-5.6-1.3-7
		C144.2,71.2,142.7,70.3,140.6,69.9z"/>
</g>
<g class="st0">
	<path class="st2" d="M224.5,92.7c-3.4,2.8-11,4.1-23,4.1c-12,0-19.7-1.4-23-4.1c-2.1-1.7-3.7-3.6-4.7-5.9c-1-2.3-1.5-5.2-1.5-8.8
		V56.4h11.2v20.4c0,3.8,1,6.8,2.9,9c1.1,1.3,3.1,2.2,6.2,2.8c3,0.6,6.1,0.9,9.1,0.9c3,0,6-0.3,9-0.9c3-0.6,5-1.5,6.1-2.8
		c1.9-2.3,2.9-5.3,2.9-9V56.4h11.2v21.7c0,3.6-0.5,6.5-1.5,8.8C228.1,89.1,226.6,91.1,224.5,92.7z"/>
	<path class="st2" d="M262.9,44.8h-11.7V34.4h11.7V44.8z M262.3,54.7v42l-10.8,0.1V54.7H262.3z"/>
	<path class="st2" d="M295.7,96.7c-3.7,0-6.3-0.8-7.9-2.4c-1.9-1.7-2.8-4.5-2.8-8.2V34.4h11.3v51.2c0,1.3,0.2,2.1,0.5,2.4
		c0.1,0,0.2,0.1,0.4,0.2c0.2,0.2,0.4,0.3,0.7,0.4c0.3,0.1,0.6,0.1,1,0.1h4.2v8h-2.8c-0.5,0-1.4,0-2.4,0
		C296.8,96.7,296.1,96.7,295.7,96.7z"/>
	<path class="st2" d="M343.4,96.8c-9.6,0-16.1-1.2-19.4-3.7c-3.6-2.5-5.4-6.4-5.4-11.8c-0.1-11.3-0.1-23.4,0-36.1h11.1V56H352v7.8
		h-22.3v12.2c0,3.5,0.1,5.9,0.4,7.1c0.3,1.2,0.9,2.2,1.7,3.1c1.9,1.7,5.5,2.5,10.8,2.5h12.1v7.9c-1.9,0-4.3,0-7,0
		C344.9,96.8,343.5,96.8,343.4,96.8z"/>
</g>
<g class="st0">
	<path class="st1" d="M426.2,94.1c-4.6,1.7-12.9,2.6-24.7,2.6c-11,0-18.5-1.2-22.7-3.6c-2.4-1.3-4.1-2.8-5.1-4.5
		c-1-1.6-1.7-3.9-2.1-6.8h11.3c0.5,2.3,1.4,4,2.7,4.9c2.3,1.9,7.6,2.8,15.9,2.8c5.3,0,9.1-0.1,11.3-0.4c4.5-0.4,8-1.5,10.3-3.1
		c1.7-1.2,2.6-3.6,2.6-7.2v-2.6l-0.2-2.3c-0.3-1.4-0.9-2.3-1.6-2.6c-1.6-0.8-4.8-1.4-9.6-1.7c-1.6-0.1-3.8-0.2-6.6-0.2
		c-2.8,0-4.3,0-4.5,0c-4.9,0-8.9-0.1-12.2-0.4c-5.8-0.3-10.2-1.1-13-2.5c-5.1-2.6-7.6-7.1-7.6-13.7c0-4.1,0.6-7.2,1.8-9.5
		c1.2-2.3,3.1-4,5.6-5.4c4.5-2.4,12.8-3.6,24.9-3.6c7.1,0,12.8,0.3,17.3,0.9c4.4,0.6,8,1.9,10.7,3.9c3.1,2.3,4.8,5.7,5.3,10.1h-10.9
		c-0.3-2-1.1-3.5-2.3-4.4c-1.6-1.2-4.8-2.1-9.6-2.6c-2.1-0.2-5.7-0.3-11-0.3c-9.9,0-16,1-18.1,3.1c-1.6,1.4-2.4,3.9-2.4,7.5
		c0,1.8,0.1,3.2,0.4,4.1c0.2,1,0.8,1.9,1.6,2.7c1.1,1,4.1,1.7,8.7,2.2c1.5,0.1,5,0.3,10.8,0.4c0.6,0,1.7,0,3.3,0
		c1.6,0,3.2,0.1,4.9,0.1c1.7,0.1,3.3,0.1,4.8,0.2c6.4,0.4,10.6,0.8,12.5,1.4c3.3,1,5.5,2.6,6.5,4.6c1,2.1,1.5,5.3,1.5,9.6
		C436.5,86.1,433.1,91.4,426.2,94.1z"/>
</g>
<g class="st0">
	<path class="st1" d="M551.1,96.8h-11V75.2c0-5.2-1.3-8.5-3.9-9.9c-2.8-1.4-7.4-2.2-13.8-2.2c-6.2,0-10.8,1.3-13.7,4
		c-0.8,0.8-1.3,2.8-1.6,6c-0.1,0.6-0.1,2.4-0.1,5.5v18.2h-11V78.6c0-1.6,0-3.2-0.1-4.9c-0.4-3.3-0.9-5.4-1.5-6.4
		c-2-2.8-6.6-4.2-13.7-4.2c-6.6,0-11.1,0.6-13.4,1.7c-2.9,1.6-4.4,5-4.4,10.3v21.6h-10.8V76c0-4.9,0.3-8.6,1-11s2.2-4.5,4.7-6.3
		c3.7-2.5,10.8-3.8,21.4-3.8c8.6,0,15.2,1.1,19.6,3.4c1,0.5,1.9,1.2,2.8,2.1c1.4-1.4,2.8-2.4,4.4-3c4-1.6,10.1-2.3,18.5-2.3
		c9.7,0,16.3,1.1,20.1,3.3c2.4,1.5,4.1,3.6,5,6.4c0.9,2.8,1.4,6.5,1.4,11.2V96.8z"/>
	<path class="st1" d="M627.6,96.8h-10.7v-3.1v-0.5V91c0-2.8,0-5-0.1-6.6c0-1.4,0-2.9,0-4.5c0-1.6,0-2.9,0-3.8v-1.4
		c-0.1-2.6-0.2-4.5-0.4-5.8c-0.2-1.3-0.7-2.3-1.6-3.1c-2.3-1.9-7.6-2.9-16.1-2.9c-7.8,0-13.4,0.9-16.7,2.6c-1.6,0.8-2.8,2.5-3.5,5
		c-0.2,1-0.4,2.2-0.4,3.4c-0.1,0.8-0.1,1.9-0.1,3.2c0,4.7,1,7.8,2.9,9.4c2,1.7,6.4,2.5,13.1,2.5c3,0,7.1-0.1,12.2-0.2l6.6-0.3v7.5
		l-6.8,0.3c-2.5,0.2-6,0.3-10.6,0.3c-10.6,0-17.8-1.1-21.6-3.4c-4.7-2.9-7-8.3-7-16.2c0-9.5,2.8-15.6,8.4-18.3
		c5.5-2.5,13.6-3.7,24.5-3.7c3.7,0,7.9,0.3,12.5,0.9c4.6,0.6,7.9,1.5,9.9,2.9c3.7,2.6,5.6,6.9,5.6,13V96.8z"/>
	<path class="st1" d="M696.9,68.1h-12.8c-0.2-1.6-0.8-2.6-1.6-3.1c-0.1-0.1-0.6-0.3-1.5-0.6c-0.2-0.1-0.6-0.2-1.1-0.3
		c-0.5-0.1-0.9-0.2-1.1-0.2c-1.8-0.4-4.9-0.5-9.3-0.5c-7.2,0-11.4,1.7-12.7,5c-0.8,2.3-1.3,5.7-1.3,10.2c0,0.1,0,1.3,0,3.6
		c0,2.3,0,5,0,7.9c0,2.9,0,5.2,0,6.7h-11.1V73.5c0-5.5,1.7-9.8,5.2-13c1.7-1.6,4.5-2.8,8.4-3.7c3.8-0.8,7.7-1.3,11.5-1.3
		c8.4,0,14.8,0.9,19.3,2.6c2.4,1,4.2,2.2,5.5,3.6C695.5,63.2,696.4,65.3,696.9,68.1z"/>
	<path class="st1" d="M736.1,96.8c-9.6,0-16.1-1.2-19.4-3.7c-3.6-2.5-5.4-6.4-5.4-11.8c-0.1-11.3-0.1-23.4,0-36.1h11.1V56h22.3v7.8
		h-22.3v12.2c0,3.5,0.1,5.9,0.5,7.1c0.3,1.2,0.9,2.2,1.7,3.1c1.9,1.7,5.5,2.5,10.8,2.5h12.1v7.9c-1.9,0-4.3,0-7,0
		C737.6,96.8,736.1,96.8,736.1,96.8z"/>
</g>
</svg>
