{
  "accessors": [
    {
      "bufferView": 2,
      "componentType": 5126,
      "count": 65532,
      "max": [
        0.14593684673309326,
        0.09485910832881927,
        0.15766197443008423
      ],
      "min": [
        -0.1721624732017517,
        0.013940706849098206,
        -0.16024960577487946
      ],
      "type": "VEC3"
    },
    {
      "bufferView": 2,
      "byteOffset": 786384,
      "componentType": 5126,
      "count": 65532,
      "max": [
        0.999839723110199,
        0.9999998807907104,
        0.9997529983520508
      ],
      "min": [
        -0.9999770522117615,
        -0.9987472295761108,
        -0.9999787211418152
      ],
      "type": "VEC3"
    },
    {
      "bufferView": 1,
      "componentType": 5126,
      "count": 65532,
      "max": [
        0.997766375541687,
        0.9880940318107605
      ],
      "min": [
        0.030962079763412476,
        0.4735754728317261
      ],
      "type": "VEC2"
    },
    {
      "bufferView": 1,
      "byteOffset": 524256,
      "componentType": 5126,
      "count": 65532,
      "max": [
        0.997766375541687,
        0.9880940318107605
      ],
      "min": [
        0.030962079763412476,
        0.4735754728317261
      ],
      "type": "VEC2"
    },
    {
      "bufferView": 1,
      "byteOffset": 1048512,
      "componentType": 5126,
      "count": 65532,
      "max": [
        0.997766375541687,
        0.9880940318107605
      ],
      "min": [
        0.030962079763412476,
        0.4735754728317261
      ],
      "type": "VEC2"
    },
    {
      "bufferView": 1,
      "byteOffset": 1572768,
      "componentType": 5126,
      "count": 65532,
      "max": [
        0.997766375541687,
        0.9880940318107605
      ],
      "min": [
        0.030962079763412476,
        0.4735754728317261
      ],
      "type": "VEC2"
    },
    {
      "bufferView": 1,
      "byteOffset": 2097024,
      "componentType": 5126,
      "count": 65532,
      "max": [
        0.997766375541687,
        0.9880940318107605
      ],
      "min": [
        0.030962079763412476,
        0.4735754728317261
      ],
      "type": "VEC2"
    },
    {
      "bufferView": 1,
      "byteOffset": 2621280,
      "componentType": 5126,
      "count": 65532,
      "max": [
        0.997766375541687,
        0.9880940318107605
      ],
      "min": [
        0.030962079763412476,
        0.4735754728317261
      ],
      "type": "VEC2"
    },
    {
      "bufferView": 1,
      "byteOffset": 3145536,
      "componentType": 5126,
      "count": 65532,
      "max": [
        0.997766375541687,
        0.9880940318107605
      ],
      "min": [
        0.030962079763412476,
        0.4735754728317261
      ],
      "type": "VEC2"
    },
    {
      "bufferView": 1,
      "byteOffset": 3669792,
      "componentType": 5126,
      "count": 65532,
      "max": [
        0.997766375541687,
        0.9880940318107605
      ],
      "min": [
        0.030962079763412476,
        0.4735754728317261
      ],
      "type": "VEC2"
    },
    {
      "bufferView": 1,
      "byteOffset": 4194048,
      "componentType": 5126,
      "count": 65532,
      "max": [
        0.997766375541687,
        0.9880940318107605
      ],
      "min": [
        0.030962079763412476,
        0.4735754728317261
      ],
      "type": "VEC2"
    },
    {
      "bufferView": 1,
      "byteOffset": 4718304,
      "componentType": 5126,
      "count": 65532,
      "max": [
        0.997766375541687,
        0.9880940318107605
      ],
      "min": [
        0.030962079763412476,
        0.4735754728317261
      ],
      "type": "VEC2"
    },
    {
      "bufferView": 0,
      "componentType": 5125,
      "count": 338154,
      "type": "SCALAR"
    },
    {
      "bufferView": 2,
      "byteOffset": 1572768,
      "componentType": 5126,
      "count": 65532,
      "max": [
        0.1461048722267151,
        0.08963895589113235,
        0.1599763035774231
      ],
      "min": [
        -0.1721624732017517,
        0.013940706849098206,
        -0.1607103794813156
      ],
      "type": "VEC3"
    },
    {
      "bufferView": 2,
      "byteOffset": 2359152,
      "componentType": 5126,
      "count": 65532,
      "max": [
        0.9998336434364319,
        0.999996542930603,
        0.9999589323997498
      ],
      "min": [
        -0.9999385476112366,
        -0.7332452535629272,
        -0.9999750256538391
      ],
      "type": "VEC3"
    },
    {
      "bufferView": 1,
      "byteOffset": 5242560,
      "componentType": 5126,
      "count": 65532,
      "max": [
        0.9475272297859192,
        0.9979099035263062
      ],
      "min": [
        0.00209769606590271,
        0.5683685541152954
      ],
      "type": "VEC2"
    },
    {
      "bufferView": 1,
      "byteOffset": 5766816,
      "componentType": 5126,
      "count": 65532,
      "max": [
        0.9475272297859192,
        0.9979099035263062
      ],
      "min": [
        0.00209769606590271,
        0.5683685541152954
      ],
      "type": "VEC2"
    },
    {
      "bufferView": 1,
      "byteOffset": 6291072,
      "componentType": 5126,
      "count": 65532,
      "max": [
        0.9475272297859192,
        0.9979099035263062
      ],
      "min": [
        0.00209769606590271,
        0.5683685541152954
      ],
      "type": "VEC2"
    },
    {
      "bufferView": 1,
      "byteOffset": 6815328,
      "componentType": 5126,
      "count": 65532,
      "max": [
        0.9475272297859192,
        0.9979099035263062
      ],
      "min": [
        0.00209769606590271,
        0.5683685541152954
      ],
      "type": "VEC2"
    },
    {
      "bufferView": 1,
      "byteOffset": 7339584,
      "componentType": 5126,
      "count": 65532,
      "max": [
        0.9475272297859192,
        0.9979099035263062
      ],
      "min": [
        0.00209769606590271,
        0.5683685541152954
      ],
      "type": "VEC2"
    },
    {
      "bufferView": 1,
      "byteOffset": 7863840,
      "componentType": 5126,
      "count": 65532,
      "max": [
        0.9475272297859192,
        0.9979099035263062
      ],
      "min": [
        0.00209769606590271,
        0.5683685541152954
      ],
      "type": "VEC2"
    },
    {
      "bufferView": 1,
      "byteOffset": 8388096,
      "componentType": 5126,
      "count": 65532,
      "max": [
        0.9475272297859192,
        0.9979099035263062
      ],
      "min": [
        0.00209769606590271,
        0.5683685541152954
      ],
      "type": "VEC2"
    },
    {
      "bufferView": 1,
      "byteOffset": 8912352,
      "componentType": 5126,
      "count": 65532,
      "max": [
        0.9475272297859192,
        0.9979099035263062
      ],
      "min": [
        0.00209769606590271,
        0.5683685541152954
      ],
      "type": "VEC2"
    },
    {
      "bufferView": 1,
      "byteOffset": 9436608,
      "componentType": 5126,
      "count": 65532,
      "max": [
        0.9475272297859192,
        0.9979099035263062
      ],
      "min": [
        0.00209769606590271,
        0.5683685541152954
      ],
      "type": "VEC2"
    },
    {
      "bufferView": 1,
      "byteOffset": 9960864,
      "componentType": 5126,
      "count": 65532,
      "max": [
        0.9475272297859192,
        0.9979099035263062
      ],
      "min": [
        0.00209769606590271,
        0.5683685541152954
      ],
      "type": "VEC2"
    },
    {
      "bufferView": 0,
      "byteOffset": 1352616,
      "componentType": 5125,
      "count": 362274,
      "type": "SCALAR"
    },
    {
      "bufferView": 2,
      "byteOffset": 3145536,
      "componentType": 5126,
      "count": 4026,
      "max": [
        0.11334787309169769,
        0.06663985550403595,
        0.08718900382518768
      ],
      "min": [
        -0.1502728909254074,
        0.01878601312637329,
        -0.089241623878479
      ],
      "type": "VEC3"
    },
    {
      "bufferView": 2,
      "byteOffset": 3193848,
      "componentType": 5126,
      "count": 4026,
      "max": [
        0.9939155578613281,
        0.9999972581863403,
        0.9990922808647156
      ],
      "min": [
        -0.9988413453102112,
        -0.6100538372993469,
        -0.9997289776802063
      ],
      "type": "VEC3"
    },
    {
      "bufferView": 1,
      "byteOffset": 10485120,
      "componentType": 5126,
      "count": 4026,
      "max": [
        0.7310482859611511,
        0.7799408435821533
      ],
      "min": [
        0.0021030008792877197,
        0.56883305311203
      ],
      "type": "VEC2"
    },
    {
      "bufferView": 1,
      "byteOffset": 10517328,
      "componentType": 5126,
      "count": 4026,
      "max": [
        0.7310482859611511,
        0.7799408435821533
      ],
      "min": [
        0.0021030008792877197,
        0.56883305311203
      ],
      "type": "VEC2"
    },
    {
      "bufferView": 1,
      "byteOffset": 10549536,
      "componentType": 5126,
      "count": 4026,
      "max": [
        0.7310482859611511,
        0.7799408435821533
      ],
      "min": [
        0.0021030008792877197,
        0.56883305311203
      ],
      "type": "VEC2"
    },
    {
      "bufferView": 1,
      "byteOffset": 10581744,
      "componentType": 5126,
      "count": 4026,
      "max": [
        0.7310482859611511,
        0.7799408435821533
      ],
      "min": [
        0.0021030008792877197,
        0.56883305311203
      ],
      "type": "VEC2"
    },
    {
      "bufferView": 1,
      "byteOffset": 10613952,
      "componentType": 5126,
      "count": 4026,
      "max": [
        0.7310482859611511,
        0.7799408435821533
      ],
      "min": [
        0.0021030008792877197,
        0.56883305311203
      ],
      "type": "VEC2"
    },
    {
      "bufferView": 1,
      "byteOffset": 10646160,
      "componentType": 5126,
      "count": 4026,
      "max": [
        0.7310482859611511,
        0.7799408435821533
      ],
      "min": [
        0.0021030008792877197,
        0.56883305311203
      ],
      "type": "VEC2"
    },
    {
      "bufferView": 1,
      "byteOffset": 10678368,
      "componentType": 5126,
      "count": 4026,
      "max": [
        0.7310482859611511,
        0.7799408435821533
      ],
      "min": [
        0.0021030008792877197,
        0.56883305311203
      ],
      "type": "VEC2"
    },
    {
      "bufferView": 1,
      "byteOffset": 10710576,
      "componentType": 5126,
      "count": 4026,
      "max": [
        0.7310482859611511,
        0.7799408435821533
      ],
      "min": [
        0.0021030008792877197,
        0.56883305311203
      ],
      "type": "VEC2"
    },
    {
      "bufferView": 1,
      "byteOffset": 10742784,
      "componentType": 5126,
      "count": 4026,
      "max": [
        0.7310482859611511,
        0.7799408435821533
      ],
      "min": [
        0.0021030008792877197,
        0.56883305311203
      ],
      "type": "VEC2"
    },
    {
      "bufferView": 1,
      "byteOffset": 10774992,
      "componentType": 5126,
      "count": 4026,
      "max": [
        0.7310482859611511,
        0.7799408435821533
      ],
      "min": [
        0.0021030008792877197,
        0.56883305311203
      ],
      "type": "VEC2"
    },
    {
      "bufferView": 0,
      "byteOffset": 2801712,
      "componentType": 5125,
      "count": 19425,
      "type": "SCALAR"
    }
  ],
  "asset": {
    "extras": {
      "author": "JFN (https://sketchfab.com/db4)",
      "license": "CC-BY-4.0 (http://creativecommons.org/licenses/by/4.0/)",
      "source": "https://sketchfab.com/3d-models/steak-and-rice-scaniverse-95c7fef786494b77bfa6cb3d9f66858e",
      "title": "Steak and Rice (Scaniverse)"
    },
    "generator": "Sketchfab-16.9.0",
    "version": "2.0"
  },
  "bufferViews": [
    {
      "buffer": 0,
      "byteLength": 2879412,
      "name": "floatBufferViews",
      "target": 34963
    },
    {
      "buffer": 0,
      "byteLength": 10807200,
      "byteOffset": 2879412,
      "byteStride": 8,
      "name": "floatBufferViews",
      "target": 34962
    },
    {
      "buffer": 0,
      "byteLength": 3242160,
      "byteOffset": 13686612,
      "byteStride": 12,
      "name": "floatBufferViews",
      "target": 34962
    }
  ],
  "buffers": [
    {
      "byteLength": 16928772,
      "uri": "scene.bin"
    }
  ],
  "extensionsUsed": [
    "KHR_materials_unlit"
  ],
  "images": [
    {
      "uri": "textures/main_baseColor.jpeg"
    }
  ],
  "materials": [
    {
      "doubleSided": true,
      "extensions": {
        "KHR_materials_unlit": {}
      },
      "name": "main",
      "pbrMetallicRoughness": {
        "baseColorTexture": {
          "index": 0
        },
        "metallicFactor": 0.0
      }
    }
  ],
  "meshes": [
    {
      "name": "mesh_main_0",
      "primitives": [
        {
          "attributes": {
            "NORMAL": 1,
            "POSITION": 0,
            "TEXCOORD_0": 2,
            "TEXCOORD_1": 3,
            "TEXCOORD_2": 4,
            "TEXCOORD_3": 5,
            "TEXCOORD_4": 6,
            "TEXCOORD_5": 7,
            "TEXCOORD_6": 8,
            "TEXCOORD_7": 9,
            "TEXCOORD_8": 10,
            "TEXCOORD_9": 11
          },
          "indices": 12,
          "material": 0,
          "mode": 4
        }
      ]
    },
    {
      "name": "mesh_main_0",
      "primitives": [
        {
          "attributes": {
            "NORMAL": 14,
            "POSITION": 13,
            "TEXCOORD_0": 15,
            "TEXCOORD_1": 16,
            "TEXCOORD_2": 17,
            "TEXCOORD_3": 18,
            "TEXCOORD_4": 19,
            "TEXCOORD_5": 20,
            "TEXCOORD_6": 21,
            "TEXCOORD_7": 22,
            "TEXCOORD_8": 23,
            "TEXCOORD_9": 24
          },
          "indices": 25,
          "material": 0,
          "mode": 4
        }
      ]
    },
    {
      "name": "mesh_main_0",
      "primitives": [
        {
          "attributes": {
            "NORMAL": 27,
            "POSITION": 26,
            "TEXCOORD_0": 28,
            "TEXCOORD_1": 29,
            "TEXCOORD_2": 30,
            "TEXCOORD_3": 31,
            "TEXCOORD_4": 32,
            "TEXCOORD_5": 33,
            "TEXCOORD_6": 34,
            "TEXCOORD_7": 35,
            "TEXCOORD_8": 36,
            "TEXCOORD_9": 37
          },
          "indices": 38,
          "material": 0,
          "mode": 4
        }
      ]
    }
  ],
  "nodes": [
    {
      "children": [
        1
      ],
      "matrix": [
        1.0,
        0.0,
        0.0,
        0.0,
        0.0,
        2.220446049250313e-16,
        -1.0,
        0.0,
        0.0,
        1.0,
        2.220446049250313e-16,
        0.0,
        0.0,
        0.0,
        0.0,
        1.0
      ],
      "name": "Sketchfab_model"
    },
    {
      "children": [
        2
      ],
      "matrix": [
        1.0,
        0.0,
        0.0,
        0.0,
        0.0,
        0.0,
        1.0,
        0.0,
        0.0,
        -1.0,
        0.0,
        0.0,
        0.0,
        0.0,
        0.0,
        1.0
      ],
      "name": "1b3424c648204c4186312185d7a5acff.fbx"
    },
    {
      "children": [
        3
      ],
      "name": "RootNode"
    },
    {
      "children": [
        4,
        5,
        6
      ],
      "name": "mesh"
    },
    {
      "mesh": 0,
      "name": "mesh_main_0"
    },
    {
      "mesh": 1,
      "name": "mesh_main_0"
    },
    {
      "mesh": 2,
      "name": "mesh_main_0"
    }
  ],
  "samplers": [
    {
      "magFilter": 9729,
      "minFilter": 9987,
      "wrapS": 10497,
      "wrapT": 10497
    }
  ],
  "scene": 0,
  "scenes": [
    {
      "name": "Sketchfab_Scene",
      "nodes": [
        0
      ]
    }
  ],
  "textures": [
    {
      "sampler": 0,
      "source": 0
    }
  ]
}
